<svg xmlns="http://www.w3.org/2000/svg" fill="none" viewBox="0 0 180 37"><path fill="#000" d="M71.39 36.33c-5.42 0-10.5-1.6-14.2-4.42-3.92-2.97-6.6-7.16-7.5-12.11-.3-1.54.83-2.97 2.38-3.27 1.55-.3 2.97.83 3.27 2.38.75 3.96 2.82 7.26 5.64 9.33 2.59 1.92 5.9 2.97 9.42 2.97 3.27 0 6.1-1.05 8.25-2.82 2.3-1.86 3.62-4.56 3.62-7.5 0-2.59-1.05-5.04-2.97-6.75-1.93-1.72-4.57-2.82-7.5-3.42l-6.38-1.35c-4.22-.9-8.1-2.97-10.95-6.3-2.97-3.47-4.42-7.8-4.42-12.45 0-5.2 1.65-9.9 4.8-13.5 3.3-3.75 7.8-5.7 12.75-5.7 4.95 0 9.45 1.5 12.9 4.05 3.15 2.25 5.4 5.55 6.45 9.45.3 1.5-.83 3-2.38 3.3-1.55.3-3-.83-3.3-2.38-.9-3.15-2.7-5.7-5.1-7.35-2.1-1.5-4.8-2.25-7.65-2.25-2.85 0-5.25.9-7.05 2.4-1.8 1.5-2.7 3.6-2.7 6.15 0 2.25.9 4.35 2.55 5.7 1.65 1.35 3.9 2.4 6.6 3l6.3 1.35c4.5.9 8.55 3 11.4 6.45 2.85 3.45 4.28 7.65 4.28 12.3 0 5.55-1.73 10.5-5.18 14.1-3.45 3.6-8.18 5.4-13.58 5.4Zm27.84-35.97c-1.55 0-2.82.83-3.42 2.23l-11.1 26.2-11.25-26.2c-.6-1.35-1.87-2.23-3.42-2.23-1.87 0-3.3 1.5-3.3 3.3v32.28c0 1.88 1.5 3.38 3.38 3.38 1.87 0 3.37-1.5 3.37-3.38V12.1l9.9 23.1c.6 1.5 1.95 2.4 3.53 2.4s2.93-.9 3.52-2.4l9.9-23.1v23.4c0 1.88 1.5 3.38 3.38 3.38 1.87 0 3.37-1.5 3.37-3.38V3.68c0-1.88-1.5-3.3-3.38-3.3Zm33.53 35.97c-6.3 0-11.7-2.1-15.6-5.85-4.05-3.9-6.3-9-6.3-14.7 0-5.7 2.25-10.8 6.3-14.7S126.47.38 132.77.38c6.3 0 11.7 2.1 15.6 5.85 4.05 3.9 6.3 9 6.3 14.7 0 5.7-2.25 10.8-6.3 14.7-3.9 3.75-9.3 5.85-15.6 5.85Zm.15-6.6c3.9 0 7.05-1.35 9.3-3.75 2.25-2.4 3.6-5.85 3.6-9.9 0-4.05-1.35-7.5-3.6-9.9-2.25-2.4-5.4-3.75-9.3-3.75s-7.05 1.35-9.3 3.75c-2.25 2.4-3.6 5.85-3.6 9.9 0 4.05 1.35 7.5 3.6 9.9 2.25 2.4 5.4 3.75 9.3 3.75ZM180 35.97h-6.6V.7h6.6v35.27Z"/><path fill="#fff" d="M36.38.7H0v6.5h14.93v28.77h6.52V7.2H36.38V.7Z"/></svg>