<svg xmlns="http://www.w3.org/2000/svg" fill="none" viewBox="0 0 100 24"><path fill="#000" d="M50 23.25c-12.47 0-22.5-10.03-22.5-22.5S37.53.75 50 .75c12.47 0 22.5 10.03 22.5 22.5S62.47 23.25 50 23.25Zm0-19.5c-3.98 0-7.2 3.22-7.2 7.2s3.22 7.2 7.2 7.2 7.2-3.22 7.2-7.2-3.22-7.2-7.2-7.2Z"/><path fill="#000" d="M25 .75h-25v22.5h25V.75Z"/><path fill="#fff" d="M12.5 18.75a6.25 6.25 0 1 0 0-12.5 6.25 6.25 0 0 0 0 12.5Z"/><path fill="#000" d="M100 .75H75v22.5h25V.75Z"/><path fill="#fff" d="M87.5 18.75a6.25 6.25 0 1 0 0-12.5 6.25 6.25 0 0 0 0 12.5Z"/></svg>